<svg id="surface24039994" xmlns="http://www.w3.org/2000/svg" width="57.592" height="59.484" viewBox="0 0 57.592 59.484">
  <path id="Path_11" data-name="Path 11" d="M25.167,2,24.138,7.477a25.294,25.294,0,0,0-10.357,5.975L8.52,11.61,2.445,22.132l4.2,3.6a24.784,24.784,0,0,0-.9,6.008,24.784,24.784,0,0,0,.9,6.008l-4.2,3.6L8.52,51.874l5.245-1.859a25.344,25.344,0,0,0,10.373,6.008l1.029,5.46H37.316l1.029-5.46A25.361,25.361,0,0,0,48.7,50.015l5.245,1.859,6.091-10.523-4.216-3.6a24.79,24.79,0,0,0,.913-6.008,24.78,24.78,0,0,0-.9-6.008l4.2-3.6L53.963,11.61l-5.245,1.842A25.278,25.278,0,0,0,38.345,7.477L37.316,2Zm3.519,4.249H33.8l.83,4.481,1.361.332a21.218,21.218,0,0,1,10.788,6.224l.946,1.012,4.315-1.51L54.594,21.2l-3.452,2.971.415,1.328a21.415,21.415,0,0,1,0,12.481l-.415,1.328,3.452,2.971L52.038,46.7l-4.315-1.527L46.776,46.2a21.362,21.362,0,0,1-10.788,6.24l-1.361.3-.83,4.5H28.685l-.83-4.5-1.361-.3A21.364,21.364,0,0,1,15.706,46.2l-.963-1.029L10.429,46.7,7.889,42.281l3.452-2.971-.415-1.328a21.415,21.415,0,0,1,0-12.481l.415-1.328L7.889,21.2l2.539-4.415L14.76,18.3l.946-1.012a21.22,21.22,0,0,1,10.788-6.224l1.361-.332ZM31.241,19A12.747,12.747,0,1,0,43.988,31.742,12.771,12.771,0,0,0,31.241,19Zm0,4.249a8.5,8.5,0,1,1-8.5,8.5A8.472,8.472,0,0,1,31.241,23.244Zm0,0" transform="translate(-2.445 -2)" fill="#9da4bd"/>
</svg>
